# Blender 4.5.4 LTS
# www.blender.org
mtllib Beer.mtl
o Cylinder
v 0.000000 -1.300000 -0.770592
v 0.000000 2.986597 -0.770592
v 0.294893 -1.300000 -0.711934
v 0.294893 2.986597 -0.711934
v 0.544891 -1.300000 -0.544891
v 0.544891 2.986597 -0.544891
v 0.711934 -1.300000 -0.294893
v 0.711934 2.986597 -0.294893
v 0.770592 -1.300000 0.000000
v 0.770592 2.986597 0.000000
v 0.711934 -1.300000 0.294893
v 0.711934 2.986597 0.294893
v 0.544891 -1.300000 0.544891
v 0.544891 2.986597 0.544891
v 0.294893 -1.300000 0.711934
v 0.294893 2.986597 0.711934
v 0.000000 -1.300000 0.770592
v 0.000000 2.986597 0.770592
v -0.294893 -1.300000 0.711934
v -0.294893 2.986597 0.711934
v -0.544891 -1.300000 0.544891
v -0.544891 2.986597 0.544891
v -0.711934 -1.300000 0.294893
v -0.711934 2.986597 0.294893
v -0.770592 -1.300000 0.000000
v -0.770592 2.986597 0.000000
v -0.711934 -1.300000 -0.294893
v -0.711934 2.986597 -0.294893
v -0.544891 -1.300000 -0.544891
v -0.544891 2.986597 -0.544891
v -0.294893 -1.300000 -0.711934
v -0.294893 2.986597 -0.711934
v 0.382683 2.686597 -0.923880
v 0.000000 2.686597 -1.000000
v 0.707107 2.686597 -0.707107
v 0.923880 2.686597 -0.382683
v 1.000000 2.686597 0.000000
v 0.923880 2.686597 0.382683
v 0.707107 2.686597 0.707107
v 0.382683 2.686597 0.923880
v 0.000000 2.686597 1.000000
v -0.382683 2.686597 0.923880
v -0.707107 2.686597 0.707107
v -0.923880 2.686597 0.382683
v -1.000000 2.686597 0.000000
v -0.923880 2.686597 -0.382683
v -0.707107 2.686597 -0.707107
v -0.382683 2.686597 -0.923880
v 0.304647 2.986597 -0.735484
v 0.000000 2.986597 -0.796082
v 0.562915 2.986597 -0.562915
v 0.735484 2.986597 -0.304647
v 0.796082 2.986597 0.000000
v 0.735484 2.986597 0.304647
v 0.562915 2.986597 0.562915
v 0.304647 2.986597 0.735484
v 0.000000 2.986597 0.796082
v -0.304647 2.986597 0.735484
v -0.562915 2.986597 0.562915
v -0.735484 2.986597 0.304647
v -0.796082 2.986597 0.000000
v -0.735484 2.986597 -0.304647
v -0.562915 2.986597 -0.562915
v -0.304647 2.986597 -0.735484
v 0.294893 2.936597 -0.711934
v 0.000000 2.936597 -0.770592
v 0.544891 2.936597 -0.544891
v 0.711934 2.936597 -0.294893
v 0.770592 2.936597 0.000000
v 0.711934 2.936597 0.294893
v 0.544891 2.936597 0.544891
v 0.294893 2.936597 0.711934
v 0.000000 2.936597 0.770592
v -0.294893 2.936597 0.711934
v -0.544891 2.936597 0.544891
v -0.711934 2.936597 0.294893
v -0.770592 2.936597 0.000000
v -0.711934 2.936597 -0.294893
v -0.544891 2.936597 -0.544891
v -0.294893 2.936597 -0.711934
v 0.000000 -1.000000 -1.000000
v 0.382683 -1.000000 -0.923880
v 0.707107 -1.000000 -0.707107
v 0.923880 -1.000000 -0.382683
v 1.000000 -1.000000 0.000000
v 0.923880 -1.000000 0.382683
v 0.707107 -1.000000 0.707107
v 0.382683 -1.000000 0.923880
v 0.000000 -1.000000 1.000000
v -0.382683 -1.000000 0.923880
v -0.707107 -1.000000 0.707107
v -0.923880 -1.000000 0.382683
v -1.000000 -1.000000 0.000000
v -0.923880 -1.000000 -0.382683
v -0.707107 -1.000000 -0.707107
v -0.382683 -1.000000 -0.923880
v 0.000000 -1.300000 -0.796082
v 0.304647 -1.300000 -0.735484
v 0.562915 -1.300000 -0.562915
v 0.735484 -1.300000 -0.304647
v 0.796082 -1.300000 0.000000
v 0.735484 -1.300000 0.304647
v 0.562915 -1.300000 0.562915
v 0.304647 -1.300000 0.735484
v 0.000000 -1.300000 0.796082
v -0.304647 -1.300000 0.735484
v -0.562915 -1.300000 0.562915
v -0.735484 -1.300000 0.304647
v -0.796082 -1.300000 0.000000
v -0.735484 -1.300000 -0.304647
v -0.562915 -1.300000 -0.562915
v -0.304647 -1.300000 -0.735484
v 0.000000 -1.250000 -0.770592
v 0.294893 -1.250000 -0.711934
v 0.544891 -1.250000 -0.544891
v 0.711934 -1.250000 -0.294893
v 0.770592 -1.250000 0.000000
v 0.711934 -1.250000 0.294893
v 0.544891 -1.250000 0.544891
v 0.294893 -1.250000 0.711934
v 0.000000 -1.250000 0.770592
v -0.294893 -1.250000 0.711934
v -0.544891 -1.250000 0.544891
v -0.711934 -1.250000 0.294893
v -0.770592 -1.250000 0.000000
v -0.711934 -1.250000 -0.294893
v -0.544891 -1.250000 -0.544891
v -0.294893 -1.250000 -0.711934
vn 0.1951 -0.0000 -0.9808
vn 0.5556 -0.0000 -0.8315
vn 0.8315 -0.0000 -0.5556
vn 0.9808 -0.0000 -0.1951
vn 0.9808 -0.0000 0.1951
vn 0.8315 -0.0000 0.5556
vn 0.5556 -0.0000 0.8315
vn 0.1951 -0.0000 0.9808
vn -0.1951 -0.0000 0.9808
vn -0.5556 -0.0000 0.8315
vn -0.8315 -0.0000 0.5556
vn -0.9808 -0.0000 0.1951
vn -0.9808 -0.0000 -0.1951
vn -0.8315 -0.0000 -0.5556
vn -0.5556 -0.0000 -0.8315
vn -0.1951 -0.0000 -0.9808
vn 0.1623 0.5547 -0.8161
vn 0.4623 0.5547 -0.6918
vn 0.6918 0.5547 -0.4623
vn 0.8161 0.5547 -0.1623
vn 0.8161 0.5547 0.1623
vn 0.6918 0.5547 0.4623
vn 0.4623 0.5547 0.6918
vn 0.1623 0.5547 0.8161
vn -0.1623 0.5547 0.8161
vn -0.4623 0.5547 0.6918
vn -0.6918 0.5547 0.4623
vn -0.8161 0.5547 0.1623
vn -0.8161 0.5547 -0.1623
vn -0.6918 0.5547 -0.4623
vn -0.4623 0.5547 -0.6918
vn -0.1623 0.5547 -0.8161
vn -0.0000 1.0000 -0.0000
vn 0.1623 -0.5547 -0.8161
vn 0.4623 -0.5547 -0.6918
vn 0.6918 -0.5547 -0.4623
vn 0.8161 -0.5547 -0.1623
vn 0.8161 -0.5547 0.1623
vn 0.6918 -0.5547 0.4623
vn 0.4623 -0.5547 0.6918
vn 0.1623 -0.5547 0.8161
vn -0.1623 -0.5547 0.8161
vn -0.4623 -0.5547 0.6918
vn -0.6918 -0.5547 0.4623
vn -0.8161 -0.5547 0.1623
vn -0.8161 -0.5547 -0.1623
vn -0.6918 -0.5547 -0.4623
vn -0.4623 -0.5547 -0.6918
vn -0.1623 -0.5547 -0.8161
vn -0.0000 -1.0000 -0.0000
vt 0.442236 0.002756
vt 0.440168 0.999731
vt 0.377606 0.999731
vt 0.379674 0.002756
vt 0.315044 0.999731
vt 0.317112 0.002756
vt 0.252483 0.999731
vt 0.254550 0.002756
vt 0.189921 0.999731
vt 0.191989 0.002756
vt 0.127359 0.999731
vt 0.129427 0.002756
vt 0.064797 0.999731
vt 0.066865 0.002756
vt 0.002235 0.999731
vt 0.004303 0.002756
vt 1.005291 0.002756
vt 1.003223 0.999731
vt 0.940662 0.999731
vt 0.942729 0.002756
vt 0.878100 0.999731
vt 0.880168 0.002756
vt 0.815538 0.999731
vt 0.817606 0.002756
vt 0.752977 0.999731
vt 0.755044 0.002756
vt 0.690415 0.999731
vt 0.692482 0.002756
vt 0.627853 0.999731
vt 0.629921 0.002756
vt 0.565291 0.999731
vt 0.567359 0.002756
vt 0.434942 0.250000
vt 0.420864 0.320774
vt 0.502730 0.999731
vt 0.504797 0.002756
vt 0.750000 0.434942
vt 0.820774 0.420864
vt 0.250000 0.441060
vt 0.323115 0.426516
vt 0.341844 0.471731
vt 0.250000 0.490000
vt 0.385100 0.385100
vt 0.419706 0.419706
vt 0.426516 0.323115
vt 0.471731 0.341844
vt 0.441060 0.250000
vt 0.490000 0.250000
vt 0.426516 0.176885
vt 0.471731 0.158156
vt 0.385100 0.114900
vt 0.419706 0.080294
vt 0.323115 0.073484
vt 0.341844 0.028269
vt 0.250000 0.058940
vt 0.250000 0.010000
vt 0.176885 0.073484
vt 0.158156 0.028269
vt 0.114900 0.114900
vt 0.080294 0.080294
vt 0.073484 0.176885
vt 0.028269 0.158156
vt 0.058940 0.250000
vt 0.010000 0.250000
vt 0.073484 0.323115
vt 0.028269 0.341844
vt 0.114900 0.385100
vt 0.080294 0.419706
vt 0.176885 0.426516
vt 0.158156 0.471731
vt 0.250000 0.434942
vt 0.320774 0.420864
vt 0.380774 0.380774
vt 0.420864 0.179226
vt 0.380774 0.119226
vt 0.320774 0.079136
vt 0.250000 0.065058
vt 0.179226 0.079136
vt 0.119226 0.119226
vt 0.079136 0.179226
vt 0.065058 0.250000
vt 0.079136 0.320774
vt 0.119226 0.380774
vt 0.179226 0.420864
vt 0.823115 0.426516
vt 0.750000 0.441060
vt 0.750000 0.490000
vt 0.841844 0.471731
vt 0.885100 0.385100
vt 0.919706 0.419706
vt 0.926516 0.323115
vt 0.971731 0.341844
vt 0.941060 0.250000
vt 0.990000 0.250000
vt 0.926516 0.176885
vt 0.971731 0.158156
vt 0.885100 0.114900
vt 0.919706 0.080294
vt 0.823115 0.073484
vt 0.841844 0.028269
vt 0.750000 0.058940
vt 0.750000 0.010000
vt 0.676885 0.073484
vt 0.658156 0.028269
vt 0.614900 0.114900
vt 0.580294 0.080294
vt 0.573484 0.176885
vt 0.528269 0.158156
vt 0.558940 0.250000
vt 0.510000 0.250000
vt 0.573484 0.323115
vt 0.528269 0.341844
vt 0.614900 0.385100
vt 0.580294 0.419706
vt 0.676885 0.426516
vt 0.658156 0.471731
vt 0.880774 0.380774
vt 0.920864 0.320774
vt 0.934942 0.250000
vt 0.920864 0.179226
vt 0.880774 0.119226
vt 0.820774 0.079136
vt 0.750000 0.065058
vt 0.679226 0.079136
vt 0.619226 0.119226
vt 0.579136 0.179226
vt 0.565058 0.250000
vt 0.579136 0.320774
vt 0.619226 0.380774
vt 0.679226 0.420864
s 0
usemtl Metal
f 10/33/12 8/34/12 68/34/12 69/33/12
f 1/37/9 3/38/9 114/38/9 113/37/9
f 50/39/17 49/40/17 33/41/17 34/42/17
f 49/40/18 51/43/18 35/44/18 33/41/18
f 51/43/19 52/45/19 36/46/19 35/44/19
f 52/45/20 53/47/20 37/48/20 36/46/20
f 53/47/21 54/49/21 38/50/21 37/48/21
f 54/49/22 55/51/22 39/52/22 38/50/22
f 55/51/23 56/53/23 40/54/23 39/52/23
f 56/53/24 57/55/24 41/56/24 40/54/24
f 57/55/25 58/57/25 42/58/25 41/56/25
f 58/57/26 59/59/26 43/60/26 42/58/26
f 59/59/27 60/61/27 44/62/27 43/60/27
f 60/61/28 61/63/28 45/64/28 44/62/28
f 61/63/29 62/65/29 46/66/29 45/64/29
f 62/65/30 63/67/30 47/68/30 46/66/30
f 63/67/31 64/69/31 48/70/31 47/68/31
f 64/69/32 50/39/32 34/42/32 48/70/32
f 2/71/33 4/72/33 49/40/33 50/39/33
f 4/72/33 6/73/33 51/43/33 49/40/33
f 6/73/33 8/34/33 52/45/33 51/43/33
f 8/34/33 10/33/33 53/47/33 52/45/33
f 10/33/33 12/74/33 54/49/33 53/47/33
f 12/74/33 14/75/33 55/51/33 54/49/33
f 14/75/33 16/76/33 56/53/33 55/51/33
f 16/76/33 18/77/33 57/55/33 56/53/33
f 18/77/33 20/78/33 58/57/33 57/55/33
f 20/78/33 22/79/33 59/59/33 58/57/33
f 22/79/33 24/80/33 60/61/33 59/59/33
f 24/80/33 26/81/33 61/63/33 60/61/33
f 26/81/33 28/82/33 62/65/33 61/63/33
f 28/82/33 30/83/33 63/67/33 62/65/33
f 30/83/33 32/84/33 64/69/33 63/67/33
f 32/84/33 2/71/33 50/39/33 64/69/33
f 65/72/33 66/71/33 80/84/33 79/83/33 78/82/33 77/81/33 76/80/33 75/79/33 74/78/33 73/77/33 72/76/33 71/75/33 70/74/33 69/33/33 68/34/33 67/73/33
f 26/81/4 24/80/4 76/80/4 77/81/4
f 12/74/13 10/33/13 69/33/13 70/74/13
f 28/82/5 26/81/5 77/81/5 78/82/5
f 14/75/14 12/74/14 70/74/14 71/75/14
f 30/83/6 28/82/6 78/82/6 79/83/6
f 16/76/15 14/75/15 71/75/15 72/76/15
f 32/84/7 30/83/7 79/83/7 80/84/7
f 18/77/16 16/76/16 72/76/16 73/77/16
f 4/72/9 2/71/9 66/71/9 65/72/9
f 2/71/8 32/84/8 80/84/8 66/71/8
f 20/78/1 18/77/1 73/77/1 74/78/1
f 6/73/10 4/72/10 65/72/10 67/73/10
f 22/79/2 20/78/2 74/78/2 75/79/2
f 8/34/11 6/73/11 67/73/11 68/34/11
f 24/80/3 22/79/3 75/79/3 76/80/3
f 98/85/34 97/86/34 81/87/34 82/88/34
f 99/89/35 98/85/35 82/88/35 83/90/35
f 100/91/36 99/89/36 83/90/36 84/92/36
f 101/93/37 100/91/37 84/92/37 85/94/37
f 102/95/38 101/93/38 85/94/38 86/96/38
f 103/97/39 102/95/39 86/96/39 87/98/39
f 104/99/40 103/97/40 87/98/40 88/100/40
f 105/101/41 104/99/41 88/100/41 89/102/41
f 106/103/42 105/101/42 89/102/42 90/104/42
f 107/105/43 106/103/43 90/104/43 91/106/43
f 108/107/44 107/105/44 91/106/44 92/108/44
f 109/109/45 108/107/45 92/108/45 93/110/45
f 110/111/46 109/109/46 93/110/46 94/112/46
f 111/113/47 110/111/47 94/112/47 95/114/47
f 112/115/48 111/113/48 95/114/48 96/116/48
f 97/86/49 112/115/49 96/116/49 81/87/49
f 3/38/50 1/37/50 97/86/50 98/85/50
f 5/117/50 3/38/50 98/85/50 99/89/50
f 7/118/50 5/117/50 99/89/50 100/91/50
f 9/119/50 7/118/50 100/91/50 101/93/50
f 11/120/50 9/119/50 101/93/50 102/95/50
f 13/121/50 11/120/50 102/95/50 103/97/50
f 15/122/50 13/121/50 103/97/50 104/99/50
f 17/123/50 15/122/50 104/99/50 105/101/50
f 19/124/50 17/123/50 105/101/50 106/103/50
f 21/125/50 19/124/50 106/103/50 107/105/50
f 23/126/50 21/125/50 107/105/50 108/107/50
f 25/127/50 23/126/50 108/107/50 109/109/50
f 27/128/50 25/127/50 109/109/50 110/111/50
f 29/129/50 27/128/50 110/111/50 111/113/50
f 31/130/50 29/129/50 111/113/50 112/115/50
f 1/37/50 31/130/50 112/115/50 97/86/50
f 113/37/50 114/38/50 115/117/50 116/118/50 117/119/50 118/120/50 119/121/50 120/122/50 121/123/50 122/124/50 123/125/50 124/126/50 125/127/50 126/128/50 127/129/50 128/130/50
f 31/130/8 1/37/8 113/37/8 128/130/8
f 17/123/1 19/124/1 122/124/1 121/123/1
f 3/38/10 5/117/10 115/117/10 114/38/10
f 19/124/2 21/125/2 123/125/2 122/124/2
f 5/117/11 7/118/11 116/118/11 115/117/11
f 21/125/3 23/126/3 124/126/3 123/125/3
f 7/118/12 9/119/12 117/119/12 116/118/12
f 23/126/4 25/127/4 125/127/4 124/126/4
f 9/119/13 11/120/13 118/120/13 117/119/13
f 25/127/5 27/128/5 126/128/5 125/127/5
f 11/120/14 13/121/14 119/121/14 118/120/14
f 27/128/6 29/129/6 127/129/6 126/128/6
f 13/121/15 15/122/15 120/122/15 119/121/15
f 29/129/7 31/130/7 128/130/7 127/129/7
f 15/122/16 17/123/16 121/123/16 120/122/16
usemtl Material
f 81/1/1 34/2/1 33/3/1 82/4/1
f 82/4/2 33/3/2 35/5/2 83/6/2
f 83/6/3 35/5/3 36/7/3 84/8/3
f 84/8/4 36/7/4 37/9/4 85/10/4
f 85/10/5 37/9/5 38/11/5 86/12/5
f 86/12/6 38/11/6 39/13/6 87/14/6
f 87/14/7 39/13/7 40/15/7 88/16/7
f 88/17/8 40/18/8 41/19/8 89/20/8
f 89/20/9 41/19/9 42/21/9 90/22/9
f 90/22/10 42/21/10 43/23/10 91/24/10
f 91/24/11 43/23/11 44/25/11 92/26/11
f 92/26/12 44/25/12 45/27/12 93/28/12
f 93/28/13 45/27/13 46/29/13 94/30/13
f 94/30/14 46/29/14 47/31/14 95/32/14
f 95/32/15 47/31/15 48/35/15 96/36/15
f 96/36/16 48/35/16 34/2/16 81/1/16
