# Blender 4.5.4 LTS
# www.blender.org
mtllib Bucket.mtl
o Cylinder
v 0.000000 -1.000000 -1.000000
v 0.000000 1.000000 -1.000000
v 0.195090 -1.000000 -0.980785
v 0.195090 1.000000 -0.980785
v 0.382683 -1.000000 -0.923880
v 0.382683 1.000000 -0.923880
v 0.555570 -1.000000 -0.831470
v 0.555570 1.000000 -0.831470
v 0.707107 -1.000000 -0.707107
v 0.707107 1.000000 -0.707107
v 0.831470 -1.000000 -0.555570
v 0.831470 1.000000 -0.555570
v 0.923880 -1.000000 -0.382683
v 0.923880 1.000000 -0.382683
v 0.980785 -1.000000 -0.195090
v 0.980785 1.000000 -0.195090
v 1.000000 -1.000000 0.000000
v 1.000000 1.000000 0.000000
v 0.980785 -1.000000 0.195090
v 0.980785 1.000000 0.195090
v 0.923880 -1.000000 0.382683
v 0.923880 1.000000 0.382683
v 0.831470 -1.000000 0.555570
v 0.831470 1.000000 0.555570
v 0.707107 -1.000000 0.707107
v 0.707107 1.000000 0.707107
v 0.555570 -1.000000 0.831470
v 0.555570 1.000000 0.831470
v 0.382683 -1.000000 0.923880
v 0.382683 1.000000 0.923880
v 0.195090 -1.000000 0.980785
v 0.195090 1.000000 0.980785
v 0.000000 -1.000000 1.000000
v 0.000000 1.000000 1.000000
v -0.195090 -1.000000 0.980785
v -0.195090 1.000000 0.980785
v -0.382683 -1.000000 0.923880
v -0.382683 1.000000 0.923880
v -0.555570 -1.000000 0.831470
v -0.555570 1.000000 0.831470
v -0.707107 -1.000000 0.707107
v -0.707107 1.000000 0.707107
v -0.831470 -1.000000 0.555570
v -0.831470 1.000000 0.555570
v -0.923880 -1.000000 0.382683
v -0.923880 1.000000 0.382683
v -0.980785 -1.000000 0.195090
v -0.980785 1.000000 0.195090
v -1.000000 -1.000000 0.000000
v -1.000000 1.000000 0.000000
v -0.980785 -1.000000 -0.195090
v -0.980785 1.000000 -0.195090
v -0.923880 -1.000000 -0.382683
v -0.923880 1.000000 -0.382683
v -0.831470 -1.000000 -0.555570
v -0.831470 1.000000 -0.555570
v -0.707107 -1.000000 -0.707107
v -0.707107 1.000000 -0.707107
v -0.555570 -1.000000 -0.831470
v -0.555570 1.000000 -0.831470
v -0.382683 -1.000000 -0.923880
v -0.382683 1.000000 -0.923880
v -0.195090 -1.000000 -0.980785
v -0.195090 1.000000 -0.980785
v 0.210063 0.992289 -1.056060
v -0.000000 0.992289 -1.076749
v 0.412054 0.992289 -0.994787
v 0.598210 0.992289 -0.895284
v 0.761377 0.992289 -0.761377
v 0.895284 0.992289 -0.598210
v 0.994787 0.992289 -0.412054
v 1.056060 0.992289 -0.210063
v 1.076749 0.992289 0.000000
v 1.056060 0.992289 0.210063
v 0.994787 0.992289 0.412054
v 0.895284 0.992289 0.598210
v 0.761377 0.992289 0.761377
v 0.598210 0.992289 0.895284
v 0.412054 0.992289 0.994787
v 0.210063 0.992289 1.056060
v -0.000000 0.992289 1.076749
v -0.210063 0.992289 1.056060
v -0.412054 0.992289 0.994787
v -0.598210 0.992289 0.895284
v -0.761377 0.992289 0.761377
v -0.895284 0.992289 0.598210
v -0.994787 0.992289 0.412054
v -1.056060 0.992289 0.210063
v -1.076749 0.992289 0.000000
v -1.056060 0.992289 -0.210063
v -0.994787 0.992289 -0.412054
v -0.895284 0.992289 -0.598210
v -0.761377 0.992289 -0.761377
v -0.598210 0.992289 -0.895284
v -0.412054 0.992289 -0.994787
v -0.210063 0.992289 -1.056060
v 0.192669 1.208650 -0.968610
v 0.000000 1.208650 -0.987587
v 0.377933 1.208650 -0.912411
v 0.548674 1.208650 -0.821148
v 0.698329 1.208650 -0.698329
v 0.821148 1.208650 -0.548674
v 0.912411 1.208650 -0.377933
v 0.968610 1.208650 -0.192669
v 0.987587 1.208650 0.000000
v 0.968610 1.208650 0.192669
v 0.912411 1.208650 0.377933
v 0.821148 1.208650 0.548674
v 0.698329 1.208650 0.698329
v 0.548674 1.208650 0.821148
v 0.377933 1.208650 0.912411
v 0.192669 1.208650 0.968610
v 0.000000 1.208650 0.987587
v -0.192669 1.208650 0.968610
v -0.377933 1.208650 0.912411
v -0.548674 1.208650 0.821148
v -0.698329 1.208650 0.698329
v -0.821148 1.208650 0.548674
v -0.912411 1.208650 0.377933
v -0.968610 1.208650 0.192669
v -0.987587 1.208650 0.000000
v -0.968610 1.208650 -0.192669
v -0.912411 1.208650 -0.377933
v -0.821148 1.208650 -0.548674
v -0.698329 1.208650 -0.698329
v -0.548674 1.208650 -0.821148
v -0.377933 1.208650 -0.912411
v -0.192669 1.208650 -0.968610
v 0.210063 1.208650 -1.056060
v 0.000000 1.208650 -1.076749
v 0.412054 1.208650 -0.994787
v 0.598210 1.208650 -0.895284
v 0.761377 1.208650 -0.761377
v 0.895284 1.208650 -0.598210
v 0.994787 1.208650 -0.412054
v 1.056060 1.208650 -0.210063
v 1.076749 1.208650 0.000000
v 1.056060 1.208650 0.210063
v 0.994787 1.208650 0.412054
v 0.895284 1.208650 0.598210
v 0.761377 1.208650 0.761377
v 0.598210 1.208650 0.895284
v 0.412054 1.208650 0.994787
v 0.210063 1.208650 1.056060
v 0.000000 1.208650 1.076749
v -0.210063 1.208650 1.056060
v -0.412054 1.208650 0.994787
v -0.598210 1.208650 0.895284
v -0.761377 1.208650 0.761377
v -0.895284 1.208650 0.598210
v -0.994787 1.208650 0.412054
v -1.056060 1.208650 0.210063
v -1.076749 1.208650 0.000000
v -1.056060 1.208650 -0.210063
v -0.994787 1.208650 -0.412054
v -0.895284 1.208650 -0.598210
v -0.761377 1.208650 -0.761377
v -0.598210 1.208650 -0.895284
v -0.412054 1.208650 -0.994787
v -0.210063 1.208650 -1.056060
v 0.178462 -0.899999 -0.897191
v 0.000000 -0.899999 -0.914768
v 0.350067 -0.899999 -0.845135
v 0.508218 -0.899999 -0.760602
v 0.646839 -0.899999 -0.646839
v 0.760602 -0.899999 -0.508218
v 0.845135 -0.899999 -0.350067
v 0.897191 -0.899999 -0.178462
v 0.914768 -0.899999 0.000000
v 0.897191 -0.899999 0.178462
v 0.845135 -0.899999 0.350067
v 0.760602 -0.899999 0.508218
v 0.646839 -0.899999 0.646839
v 0.508218 -0.899999 0.760602
v 0.350067 -0.899999 0.845135
v 0.178462 -0.899999 0.897191
v 0.000000 -0.899999 0.914768
v -0.178462 -0.899999 0.897191
v -0.350067 -0.899999 0.845135
v -0.508218 -0.899999 0.760602
v -0.646839 -0.899999 0.646839
v -0.760602 -0.899999 0.508218
v -0.845135 -0.899999 0.350067
v -0.897191 -0.899999 0.178462
v -0.914768 -0.899999 0.000000
v -0.897191 -0.899999 -0.178462
v -0.845135 -0.899999 -0.350067
v -0.760602 -0.899999 -0.508218
v -0.646839 -0.899999 -0.646839
v -0.508218 -0.899999 -0.760602
v -0.350067 -0.899999 -0.845135
v -0.178462 -0.899999 -0.897191
v 0.192669 1.874043 -0.872356
v 0.000000 1.885909 -0.887165
v 0.377933 1.838900 -0.828500
v 0.548674 1.781831 -0.757282
v 0.698329 1.705029 -0.661439
v 0.821148 1.611445 -0.544653
v 0.912411 1.504676 -0.411414
v 0.968610 1.388825 -0.266840
v 0.987587 1.268344 -0.116489
v 0.991707 1.157876 0.060951
v -0.991637 1.147863 0.033862
v -0.987587 1.268344 -0.116489
v -0.968610 1.388825 -0.266840
v -0.912411 1.504676 -0.411414
v -0.821148 1.611445 -0.544653
v -0.698329 1.705029 -0.661439
v -0.548674 1.781831 -0.757282
v -0.377933 1.838900 -0.828500
v -0.192669 1.874043 -0.872356
v 0.210063 1.928728 -0.940598
v 0.000000 1.941665 -0.956744
v 0.412054 1.890412 -0.892783
v 0.598210 1.828190 -0.815135
v 0.761377 1.744454 -0.710639
v 0.895284 1.642421 -0.583310
v 0.994787 1.526013 -0.438041
v 1.056060 1.399703 -0.280415
v 1.076749 1.268344 -0.116489
v 1.056060 1.136986 0.047436
v -1.056060 1.136986 0.047436
v -1.076749 1.268344 -0.116489
v -1.056060 1.399703 -0.280415
v -0.994787 1.526013 -0.438041
v -0.895284 1.642421 -0.583310
v -0.761377 1.744454 -0.710639
v -0.598210 1.828190 -0.815135
v -0.412054 1.890412 -0.892783
v -0.210063 1.928728 -0.940598
v 0.210063 1.928728 -0.940598
v 0.000000 1.941665 -0.956744
v 0.412054 1.890412 -0.892783
v 0.598210 1.828190 -0.815135
v 0.761377 1.744454 -0.710639
v 0.895284 1.642421 -0.583310
v 0.994787 1.526013 -0.438041
v 1.056060 1.399703 -0.280415
v 1.076749 1.268344 -0.116489
v 1.056060 1.136986 0.047436
v -1.076749 1.268344 -0.116489
v -1.056060 1.136986 0.047436
v -1.056060 1.399703 -0.280415
v -0.994787 1.526013 -0.438041
v -0.895284 1.642421 -0.583310
v -0.761377 1.744454 -0.710639
v -0.598210 1.828190 -0.815135
v -0.412054 1.890412 -0.892783
v -0.210063 1.928728 -0.940598
v 0.192669 1.874043 -0.872356
v 0.000000 1.885909 -0.887165
v 0.377933 1.838900 -0.828500
v 0.548674 1.781831 -0.757282
v 0.698329 1.705029 -0.661439
v 0.821148 1.611445 -0.544653
v 0.912411 1.504676 -0.411414
v 0.968610 1.388825 -0.266840
v 0.987587 1.268344 -0.116489
v -0.987587 1.268344 -0.116489
v -0.968610 1.388825 -0.266840
v -0.912411 1.504676 -0.411414
v -0.821148 1.611445 -0.544653
v -0.698329 1.705029 -0.661439
v -0.548674 1.781831 -0.757282
v -0.377933 1.838900 -0.828500
v -0.192669 1.874043 -0.872356
v 0.210063 1.886194 -0.974682
v 0.000000 1.899131 -0.990828
v 0.412054 1.847878 -0.926867
v 0.598210 1.785656 -0.849219
v 0.761377 1.701920 -0.744723
v 0.895284 1.599887 -0.617393
v 0.994787 1.483479 -0.472124
v 1.056060 1.357169 -0.314498
v 1.076749 1.225810 -0.150573
v 1.056060 1.094452 0.013353
v -1.076749 1.225810 -0.150573
v -1.056060 1.094452 0.013353
v -1.056060 1.357169 -0.314498
v -0.994787 1.483479 -0.472124
v -0.895284 1.599887 -0.617393
v -0.761377 1.701920 -0.744723
v -0.598210 1.785656 -0.849219
v -0.412054 1.847878 -0.926867
v -0.210063 1.886194 -0.974682
v 0.192669 1.831509 -0.906440
v 0.000000 1.843375 -0.921248
v 0.377933 1.796366 -0.862584
v 0.548674 1.739297 -0.791366
v 0.698329 1.662495 -0.695523
v 0.821148 1.568911 -0.578737
v 0.912411 1.462142 -0.445498
v 0.968610 1.346291 -0.300924
v 0.987587 1.225810 -0.150573
v 0.997818 1.110708 0.042513
v -0.987587 1.225810 -0.150573
v -0.991637 1.105329 -0.000221
v -0.968610 1.346291 -0.300924
v -0.912411 1.462142 -0.445498
v -0.821148 1.568911 -0.578737
v -0.698329 1.662495 -0.695523
v -0.548674 1.739297 -0.791366
v -0.377933 1.796366 -0.862584
v -0.192669 1.831509 -0.906440
vn 0.0980 -0.0000 -0.9952
vn 0.2903 -0.0000 -0.9569
vn 0.4714 -0.0000 -0.8819
vn 0.6344 -0.0000 -0.7730
vn 0.7730 -0.0000 -0.6344
vn 0.8819 -0.0000 -0.4714
vn 0.9569 -0.0000 -0.2903
vn 0.9952 -0.0000 -0.0980
vn 0.9952 -0.0000 0.0980
vn 0.9569 -0.0000 0.2903
vn 0.8819 -0.0000 0.4714
vn 0.7730 -0.0000 0.6344
vn 0.6344 -0.0000 0.7730
vn 0.4714 -0.0000 0.8819
vn 0.2903 -0.0000 0.9569
vn 0.0980 -0.0000 0.9952
vn -0.0980 -0.0000 0.9952
vn -0.2903 -0.0000 0.9569
vn -0.4714 -0.0000 0.8819
vn -0.6344 -0.0000 0.7730
vn -0.7730 -0.0000 0.6344
vn -0.8819 -0.0000 0.4714
vn -0.9569 -0.0000 0.2903
vn -0.9952 -0.0000 0.0980
vn -0.9952 -0.0000 -0.0980
vn -0.9569 -0.0000 -0.2903
vn -0.8819 -0.0000 -0.4714
vn -0.7730 -0.0000 -0.6344
vn -0.6344 -0.0000 -0.7730
vn -0.4714 -0.0000 -0.8819
vn -0.2903 -0.0000 -0.9569
vn -0.0980 -0.0000 -0.9952
vn -0.0000 -1.0000 -0.0000
vn 0.0098 -0.9949 0.1000
vn -0.0098 -0.9949 0.1000
vn 0.0961 -0.9949 -0.0292
vn -0.0473 -0.9949 -0.0886
vn -0.0776 -0.9949 0.0637
vn 0.0886 -0.9949 0.0473
vn 0.0292 -0.9949 -0.0961
vn -0.1000 -0.9949 -0.0098
vn 0.0292 -0.9949 0.0961
vn 0.0886 -0.9949 -0.0473
vn -0.0637 -0.9949 -0.0776
vn -0.0637 -0.9949 0.0776
vn 0.0961 -0.9949 0.0292
vn 0.0098 -0.9949 -0.1000
vn -0.1000 -0.9949 0.0098
vn 0.0473 -0.9949 0.0886
vn 0.0776 -0.9949 -0.0637
vn -0.0776 -0.9949 -0.0637
vn -0.0473 -0.9949 0.0886
vn 0.1000 -0.9949 0.0098
vn -0.0098 -0.9949 -0.1000
vn -0.0961 -0.9949 0.0292
vn 0.0637 -0.9949 0.0776
vn 0.0637 -0.9949 -0.0776
vn -0.0886 -0.9949 -0.0473
vn -0.0292 -0.9949 0.0961
vn 0.1000 -0.9949 -0.0098
vn -0.0292 -0.9949 -0.0961
vn -0.0886 -0.9949 0.0473
vn 0.0776 -0.9949 0.0637
vn 0.0473 -0.9949 -0.0886
vn -0.0961 -0.9949 -0.0292
vn -0.9564 0.0343 0.2901
vn -0.0000 1.0000 -0.0000
vn 0.7726 0.0343 -0.6340
vn -0.9946 0.0343 0.0980
vn 0.8814 0.0343 -0.4711
vn -0.9946 0.0343 -0.0980
vn 0.9564 0.0343 -0.2901
vn -0.9564 0.0343 -0.2901
vn 0.9946 0.0343 -0.0980
vn -0.8814 0.0343 -0.4711
vn 0.9946 0.0343 0.0980
vn -0.7726 0.0343 -0.6340
vn 0.9564 0.0343 0.2901
vn -0.6340 0.0343 -0.7726
vn 0.8814 0.0343 0.4711
vn -0.4711 0.0343 -0.8814
vn -0.0980 0.0343 0.9946
vn 0.7726 0.0343 0.6340
vn -0.2901 0.0343 -0.9564
vn -0.2901 0.0343 0.9564
vn 0.6340 0.0343 0.7726
vn -0.0980 0.0343 -0.9946
vn -0.4711 0.0343 0.8814
vn 0.4711 0.0343 0.8814
vn 0.0980 0.0343 -0.9946
vn -0.6340 0.0343 0.7726
vn 0.2901 0.0343 0.9564
vn 0.2901 0.0343 -0.9564
vn -0.7726 0.0343 0.6340
vn 0.0980 0.0343 0.9946
vn 0.4711 0.0343 -0.8814
vn -0.8814 0.0343 0.4711
vn 0.6340 0.0343 -0.7726
vn -0.0000 -0.7804 -0.6253
vn -0.1598 -0.8018 -0.5758
vn -0.9952 -0.0613 0.0765
vn 0.4714 0.5515 -0.6882
vn -0.4714 0.5515 -0.6882
vn -0.9569 -0.1815 0.2265
vn -0.2607 0.6037 -0.7534
vn 0.2903 0.5984 -0.7468
vn -0.6344 0.4834 -0.6032
vn -0.8819 -0.2948 0.3679
vn -0.1495 0.4920 -0.8577
vn 0.0980 0.6223 -0.7766
vn -0.7730 0.3967 -0.4951
vn -0.7730 -0.3967 0.4951
vn 0.0980 -0.6223 0.7766
vn -0.8819 0.2948 -0.3679
vn -0.6344 -0.4834 0.6032
vn 0.2903 -0.5984 0.7468
vn -0.9569 0.1815 -0.2265
vn -0.4714 -0.5515 0.6882
vn -0.0000 0.7804 0.6253
vn 0.1995 0.8037 0.5606
vn -0.2903 0.5984 -0.7468
vn 0.6344 0.4834 -0.6032
vn -0.9952 0.0613 -0.0765
vn -0.0980 0.6223 -0.7766
vn 0.7730 0.3967 -0.4951
vn 0.9952 0.0613 -0.0765
vn 0.8819 0.2948 -0.3679
vn 0.9952 -0.0613 0.0765
vn 0.9569 0.1815 -0.2265
vn 0.9569 -0.1815 0.2265
vn 0.8819 -0.2948 0.3679
vn 0.9978 0.0668 0.0020
vn 0.7730 -0.3967 0.4951
vn -0.0980 -0.6223 0.7766
vn -0.9998 0.0131 -0.0164
vn 0.6344 -0.4834 0.6032
vn -0.2903 -0.5984 0.7468
vn 0.4714 -0.5515 0.6882
vt 1.518567 -0.015205
vt 1.518567 1.021078
vt 1.453799 1.021078
vt 1.453799 -0.015205
vt 1.389031 1.021078
vt 1.389031 -0.015205
vt 1.324263 1.021078
vt 1.324263 -0.015205
vt 1.259496 1.021078
vt 1.259496 -0.015205
vt 1.194728 1.021078
vt 1.194728 -0.015205
vt 1.129960 1.021078
vt 1.129960 -0.015205
vt 1.065193 1.021078
vt 1.065193 -0.015205
vt 1.000425 1.021078
vt 1.000425 -0.015205
vt 0.935657 1.021078
vt 0.935657 -0.015205
vt 0.870890 1.021078
vt 0.870890 -0.015205
vt 0.806122 1.021078
vt 0.806122 -0.015205
vt 0.741354 1.021078
vt 0.741354 -0.015205
vt 0.676587 1.021078
vt 0.676587 -0.015205
vt 0.611819 1.021078
vt 0.611819 -0.015205
vt 0.547051 1.021078
vt 0.547051 -0.015205
vt 0.482283 1.021078
vt 0.482283 -0.015205
vt 0.417516 1.021078
vt 0.417516 -0.015205
vt 0.352748 1.021078
vt 0.352748 -0.015205
vt 0.287980 1.021078
vt 0.287980 -0.015205
vt 0.223213 1.021078
vt 0.223213 -0.015205
vt 0.158445 1.021078
vt 0.158445 -0.015205
vt 0.093677 1.021078
vt 0.093677 -0.015205
vt 0.028910 1.021078
vt 0.028910 -0.015205
vt -0.035858 1.021078
vt -0.035858 -0.015205
vt -0.100626 1.021078
vt -0.100626 -0.015205
vt -0.165393 1.021078
vt -0.165393 -0.015205
vt -0.230161 1.021078
vt -0.230161 -0.015205
vt -0.294929 1.021078
vt -0.294929 -0.015205
vt -0.359697 1.021078
vt -0.359697 -0.015205
vt -0.424464 1.021078
vt -0.424464 -0.015205
vt -0.489232 1.021078
vt -0.489232 -0.015205
vt -0.554000 1.021078
vt -0.554000 -0.015205
vt 1.000425 -0.035931
vt 1.097466 -0.045489
vt 1.190778 -0.073794
vt 1.276775 -0.119761
vt 1.352151 -0.181621
vt 1.414011 -0.256997
vt 1.459977 -0.342994
vt 1.488283 -0.436306
vt 1.497841 -0.533347
vt 1.488283 -0.630388
vt 1.459977 -0.723700
vt 1.414011 -0.809696
vt 1.352151 -0.885073
vt 1.276775 -0.946933
vt 1.190778 -0.992899
vt 1.097466 -1.021205
vt 1.000425 -1.030763
vt 0.903384 -1.021205
vt 0.810072 -0.992899
vt 0.724076 -0.946933
vt 0.648699 -0.885073
vt 0.586839 -0.809696
vt 0.540873 -0.723700
vt 0.512567 -0.630388
vt 0.503009 -0.533347
vt 0.512567 -0.436306
vt 0.540873 -0.342994
vt 0.586839 -0.256997
vt 0.648699 -0.181621
vt 0.724076 -0.119761
vt 0.810072 -0.073794
vt 0.903384 -0.045489
vt 0.411602 -0.444341
vt 0.385640 -0.358757
vt -0.035858 -0.077120
vt 0.053147 -0.085887
vt 0.061183 -0.045489
vt -0.035858 -0.035931
vt 0.138732 -0.111848
vt 0.154495 -0.073794
vt 0.217608 -0.154008
vt 0.240491 -0.119761
vt 0.286743 -0.210746
vt 0.315868 -0.181621
vt 0.343480 -0.279881
vt 0.377728 -0.256997
vt 0.423694 -0.342994
vt 0.452000 -0.436306
vt 0.420368 -0.533347
vt 0.461558 -0.533347
vt 0.411602 -0.622352
vt 0.452000 -0.630388
vt 0.385640 -0.707937
vt 0.423694 -0.723700
vt 0.343480 -0.786812
vt 0.377728 -0.809696
vt 0.286743 -0.855947
vt 0.315868 -0.885073
vt 0.217608 -0.912685
vt 0.240491 -0.946933
vt 0.138732 -0.954845
vt 0.154495 -0.992899
vt 0.053147 -0.980807
vt 0.061183 -1.021205
vt -0.035858 -0.989573
vt -0.035858 -1.030763
vt -0.124863 -0.980807
vt -0.132899 -1.021205
vt -0.210448 -0.954845
vt -0.226211 -0.992899
vt -0.289324 -0.912685
vt -0.312208 -0.946933
vt -0.358459 -0.855947
vt -0.387584 -0.885073
vt -0.415196 -0.786812
vt -0.449444 -0.809696
vt -0.457356 -0.707937
vt -0.495410 -0.723700
vt -0.483318 -0.622352
vt -0.523716 -0.630388
vt -0.492084 -0.533347
vt -0.533274 -0.533347
vt -0.483318 -0.444341
vt -0.523716 -0.436306
vt -0.457356 -0.358756
vt -0.495410 -0.342994
vt -0.415196 -0.279881
vt -0.449444 -0.256997
vt -0.358459 -0.210746
vt -0.387584 -0.181621
vt -0.289324 -0.154008
vt -0.312208 -0.119761
vt -0.210448 -0.111848
vt -0.226211 -0.073794
vt -0.124863 -0.085887
vt -0.132899 -0.045489
s 0
usemtl Material.001
f 1/1/1 2/2/1 4/3/1 3/4/1
f 3/4/2 4/3/2 6/5/2 5/6/2
f 5/6/3 6/5/3 8/7/3 7/8/3
f 7/8/4 8/7/4 10/9/4 9/10/4
f 9/10/5 10/9/5 12/11/5 11/12/5
f 11/12/6 12/11/6 14/13/6 13/14/6
f 13/14/7 14/13/7 16/15/7 15/16/7
f 15/16/8 16/15/8 18/17/8 17/18/8
f 49/50/25 50/49/25 52/51/25 51/52/25
f 51/52/26 52/51/26 54/53/26 53/54/26
f 53/54/27 54/53/27 56/55/27 55/56/27
f 55/56/28 56/55/28 58/57/28 57/58/28
f 57/58/29 58/57/29 60/59/29 59/60/29
f 59/60/30 60/59/30 62/61/30 61/62/30
f 61/62/31 62/61/31 64/63/31 63/64/31
f 63/64/32 64/63/32 2/65/32 1/66/32
f 1/67/33 3/68/33 5/69/33 7/70/33 9/71/33 11/72/33 13/73/33 15/74/33 17/75/33 19/76/33 21/77/33 23/78/33 25/79/33 27/80/33 29/81/33 31/82/33 33/83/33 35/84/33 37/85/33 39/86/33 41/87/33 43/88/33 45/89/33 47/90/33 49/91/33 51/92/33 53/93/33 55/94/33 57/95/33 59/96/33 61/97/33 63/98/33
f 2/65/34 64/63/34 96/63/34 66/65/34
f 4/3/35 2/2/35 66/2/35 65/3/35
f 48/47/36 46/45/36 87/45/36 88/47/36
f 30/29/37 28/27/37 78/27/37 79/29/37
f 12/11/38 10/9/38 69/9/38 70/11/38
f 56/55/39 54/53/39 91/53/39 92/55/39
f 38/37/40 36/35/40 82/35/40 83/37/40
f 20/19/41 18/17/41 73/17/41 74/19/41
f 64/63/42 62/61/42 95/61/42 96/63/42
f 46/45/43 44/43/43 86/43/43 87/45/43
f 28/27/44 26/25/44 77/25/44 78/27/44
f 10/9/45 8/7/45 68/7/45 69/9/45
f 54/53/46 52/51/46 90/51/46 91/53/46
f 36/35/47 34/33/47 81/33/47 82/35/47
f 18/17/48 16/15/48 72/15/48 73/17/48
f 62/61/49 60/59/49 94/59/49 95/61/49
f 44/43/50 42/41/50 85/41/50 86/43/50
f 26/25/51 24/23/51 76/23/51 77/25/51
f 8/7/52 6/5/52 67/5/52 68/7/52
f 52/51/53 50/49/53 89/49/53 90/51/53
f 34/33/54 32/31/54 80/31/54 81/33/54
f 16/15/55 14/13/55 71/13/55 72/15/55
f 60/59/56 58/57/56 93/57/56 94/59/56
f 42/41/57 40/39/57 84/39/57 85/41/57
f 24/23/58 22/21/58 75/21/58 76/23/58
f 6/5/59 4/3/59 65/3/59 67/5/59
f 50/49/60 48/47/60 88/47/60 89/49/60
f 32/31/61 30/29/61 79/29/61 80/31/61
f 14/13/62 12/11/62 70/11/62 71/13/62
f 58/57/63 56/55/63 92/55/63 93/57/63
f 40/39/64 38/37/64 83/37/64 84/39/64
f 22/21/65 20/19/65 74/19/65 75/21/65
f 75/21/10 74/19/10 138/19/10 139/21/10
f 104/99/66 103/100/66 167/100/66 168/99/66
f 84/39/19 83/37/19 147/37/19 148/39/19
f 93/57/28 92/55/28 156/55/28 157/57/28
f 71/13/6 70/11/6 134/11/6 135/13/6
f 80/31/15 79/29/15 143/29/15 144/31/15
f 89/49/24 88/47/24 152/47/24 153/49/24
f 67/5/2 65/3/2 129/3/2 131/5/2
f 76/23/11 75/21/11 139/21/11 140/23/11
f 85/41/20 84/39/20 148/39/20 149/41/20
f 94/59/29 93/57/29 157/57/29 158/59/29
f 72/15/7 71/13/7 135/13/7 136/15/7
f 81/33/16 80/31/16 144/31/16 145/33/16
f 90/51/25 89/49/25 153/49/25 154/51/25
f 68/7/3 67/5/3 131/5/3 132/7/3
f 77/25/12 76/23/12 140/23/12 141/25/12
f 86/43/21 85/41/21 149/41/21 150/43/21
f 95/61/30 94/59/30 158/59/30 159/61/30
f 73/17/8 72/15/8 136/15/8 137/17/8
f 82/35/17 81/33/17 145/33/17 146/35/17
f 91/53/26 90/51/26 154/51/26 155/53/26
f 69/9/4 68/7/4 132/7/4 133/9/4
f 78/27/13 77/25/13 141/25/13 142/27/13
f 87/45/22 86/43/22 150/43/22 151/45/22
f 96/63/31 95/61/31 159/61/31 160/63/31
f 74/19/9 73/17/9 137/17/9 138/19/9
f 83/37/18 82/35/18 146/35/18 147/37/18
f 92/55/27 91/53/27 155/53/27 156/55/27
f 70/11/5 69/9/5 133/9/5 134/11/5
f 79/29/14 78/27/14 142/27/14 143/29/14
f 88/47/23 87/45/23 151/45/23 152/47/23
f 65/3/1 66/2/1 130/2/1 129/3/1
f 66/65/32 96/63/32 160/63/32 130/65/32
f 98/101/67 97/102/67 129/103/67 130/104/67
f 97/102/67 99/105/67 131/106/67 129/103/67
f 99/105/67 100/107/67 132/108/67 131/106/67
f 100/107/67 101/109/67 133/110/67 132/108/67
f 101/109/67 102/111/67 134/112/67 133/110/67
f 102/111/67 103/100/67 135/113/67 134/112/67
f 103/100/67 104/99/67 136/114/67 135/113/67
f 104/99/67 105/115/67 137/116/67 136/114/67
f 105/115/67 106/117/67 138/118/67 137/116/67
f 106/117/67 107/119/67 139/120/67 138/118/67
f 107/119/67 108/121/67 140/122/67 139/120/67
f 108/121/67 109/123/67 141/124/67 140/122/67
f 109/123/67 110/125/67 142/126/67 141/124/67
f 110/125/67 111/127/67 143/128/67 142/126/67
f 111/127/67 112/129/67 144/130/67 143/128/67
f 112/129/67 113/131/67 145/132/67 144/130/67
f 113/131/67 114/133/67 146/134/67 145/132/67
f 114/133/67 115/135/67 147/136/67 146/134/67
f 115/135/67 116/137/67 148/138/67 147/136/67
f 116/137/67 117/139/67 149/140/67 148/138/67
f 117/139/67 118/141/67 150/142/67 149/140/67
f 118/141/67 119/143/67 151/144/67 150/142/67
f 119/143/67 120/145/67 152/146/67 151/144/67
f 120/145/67 121/147/67 153/148/67 152/146/67
f 121/147/67 122/149/67 154/150/67 153/148/67
f 122/149/67 123/151/67 155/152/67 154/150/67
f 123/151/67 124/153/67 156/154/67 155/152/67
f 124/153/67 125/155/67 157/156/67 156/154/67
f 125/155/67 126/157/67 158/158/67 157/156/67
f 126/157/67 127/159/67 159/160/67 158/158/67
f 127/159/67 128/161/67 160/162/67 159/160/67
f 128/161/67 98/101/67 130/104/67 160/162/67
f 161/102/67 162/101/67 192/161/67 191/159/67 190/157/67 189/155/67 188/153/67 187/151/67 186/149/67 185/147/67 184/145/67 183/143/67 182/141/67 181/139/67 180/137/67 179/135/67 178/133/67 177/131/67 176/129/67 175/127/67 174/125/67 173/123/67 172/121/67 171/119/67 170/117/67 169/115/67 168/99/67 167/100/67 166/111/67 165/109/67 164/107/67 163/105/67
f 118/141/68 117/139/68 181/139/68 182/141/68
f 105/115/69 104/99/69 168/99/69 169/115/69
f 119/143/70 118/141/70 182/141/70 183/143/70
f 106/117/71 105/115/71 169/115/71 170/117/71
f 120/145/72 119/143/72 183/143/72 184/145/72
f 107/119/73 106/117/73 170/117/73 171/119/73
f 121/147/74 120/145/74 184/145/74 185/147/74
f 108/121/75 107/119/75 171/119/75 172/121/75
f 122/149/76 121/147/76 185/147/76 186/149/76
f 109/123/77 108/121/77 172/121/77 173/123/77
f 123/151/78 122/149/78 186/149/78 187/151/78
f 110/125/79 109/123/79 173/123/79 174/125/79
f 124/153/80 123/151/80 187/151/80 188/153/80
f 111/127/81 110/125/81 174/125/81 175/127/81
f 97/102/82 98/101/82 162/101/82 161/102/82
f 125/155/83 124/153/83 188/153/83 189/155/83
f 112/129/84 111/127/84 175/127/84 176/129/84
f 99/105/85 97/102/85 161/102/85 163/105/85
f 126/157/86 125/155/86 189/155/86 190/157/86
f 113/131/87 112/129/87 176/129/87 177/131/87
f 100/107/88 99/105/88 163/105/88 164/107/88
f 127/159/89 126/157/89 190/157/89 191/159/89
f 114/133/90 113/131/90 177/131/90 178/133/90
f 101/109/91 100/107/91 164/107/91 165/109/91
f 128/161/92 127/159/92 191/159/92 192/161/92
f 115/135/93 114/133/93 178/133/93 179/135/93
f 102/111/94 101/109/94 165/109/94 166/111/94
f 98/101/95 128/161/95 192/161/95 162/101/95
f 116/137/96 115/135/96 179/135/96 180/137/96
f 103/100/97 102/111/97 166/111/97 167/100/97
f 117/139/98 116/137/98 180/137/98 181/139/98
f 194/101/99 213/104/99 212/103/99 193/102/99
f 193/102/99 212/103/99 214/106/99 195/105/99
f 195/105/99 214/106/99 215/108/99 196/107/99
f 196/107/99 215/108/99 216/110/99 197/109/99
f 197/109/99 216/110/99 217/112/99 198/111/99
f 198/111/99 217/112/99 218/113/99 199/100/99
f 199/100/99 218/113/99 219/114/99 200/99/99
f 200/99/99 219/114/99 220/116/99 201/115/99
f 201/115/100 220/116/100 221/118/100 202/117/100
f 203/145/99 222/146/99 223/148/99 204/147/99
f 204/147/99 223/148/99 224/150/99 205/149/99
f 205/149/99 224/150/99 225/152/99 206/151/99
f 206/151/99 225/152/99 226/154/99 207/153/99
f 207/153/99 226/154/99 227/156/99 208/155/99
f 208/155/99 227/156/99 228/158/99 209/157/99
f 209/157/99 228/158/99 229/160/99 210/159/99
f 210/159/99 229/160/99 230/162/99 211/161/99
f 211/161/99 230/162/99 213/104/99 194/101/99
f 239/116/101 238/114/101 274/114/101 275/116/101
f 252/105/102 253/107/102 289/107/102 288/105/102
f 264/157/103 265/159/103 303/159/103 302/157/103
f 238/114/104 237/113/104 273/113/104 274/114/104
f 242/146/105 203/145/105 297/145/105 278/146/105
f 250/102/106 252/105/106 288/105/106 286/102/106
f 263/155/107 264/157/107 302/157/107 301/155/107
f 237/113/108 236/112/108 272/112/108 273/113/108
f 202/117/109 240/118/109 276/118/109 295/117/109
f 251/101/110 250/102/110 286/102/110 287/101/110
f 262/153/111 263/155/111 301/155/111 300/153/111
f 236/112/112 235/110/112 271/110/112 272/112/112
f 232/104/113 249/162/113 285/162/113 268/104/113
f 261/151/114 262/153/114 300/153/114 299/151/114
f 235/110/115 234/108/115 270/108/115 271/110/115
f 249/162/116 248/160/116 284/160/116 285/162/116
f 260/149/117 261/151/117 299/151/117 298/149/117
f 234/108/118 233/106/118 269/106/118 270/108/118
f 206/151/67 207/153/67 262/153/67 261/151/67
f 213/104/67 230/162/67 249/162/67 232/104/67
f 217/112/67 216/110/67 235/110/67 236/112/67
f 207/153/67 208/155/67 263/155/67 262/153/67
f 194/101/67 193/102/67 250/102/67 251/101/67
f 202/117/67 221/118/67 240/118/67
f 218/113/67 217/112/67 236/112/67 237/113/67
f 208/155/67 209/157/67 264/157/67 263/155/67
f 193/102/67 195/105/67 252/105/67 250/102/67
f 222/146/67 203/145/67 242/146/67
f 219/114/67 218/113/67 237/113/67 238/114/67
f 209/157/67 210/159/67 265/159/67 264/157/67
f 195/105/67 196/107/67 253/107/67 252/105/67
f 220/116/67 219/114/67 238/114/67 239/116/67
f 210/159/67 211/161/67 266/161/67 265/159/67
f 196/107/67 197/109/67 254/109/67 253/107/67
f 221/118/67 220/116/67 239/116/67 240/118/67
f 211/161/67 194/101/67 251/101/67 266/161/67
f 197/109/67 198/111/67 255/111/67 254/109/67
f 223/148/67 222/146/67 242/146/67 241/148/67
f 198/111/67 199/100/67 256/100/67 255/111/67
f 224/150/67 223/148/67 241/148/67 243/150/67
f 199/100/67 200/99/67 257/99/67 256/100/67
f 225/152/67 224/150/67 243/150/67 244/152/67
f 200/99/67 201/115/67 258/115/67 257/99/67
f 226/154/67 225/152/67 244/152/67 245/154/67
f 201/115/67 202/117/67 258/115/67
f 227/156/67 226/154/67 245/154/67 246/156/67
f 212/103/67 213/104/67 232/104/67 231/103/67
f 203/145/67 204/147/67 259/147/67
f 228/158/67 227/156/67 246/156/67 247/158/67
f 214/106/67 212/103/67 231/103/67 233/106/67
f 204/147/67 205/149/67 260/149/67 259/147/67
f 229/160/67 228/158/67 247/158/67 248/160/67
f 215/108/67 214/106/67 233/106/67 234/108/67
f 205/149/67 206/151/67 261/151/67 260/149/67
f 230/162/67 229/160/67 248/160/67 249/162/67
f 216/110/67 215/108/67 234/108/67 235/110/67
f 287/101/119 286/102/119 267/103/119 268/104/119
f 286/102/119 288/105/119 269/106/119 267/103/119
f 288/105/119 289/107/119 270/108/119 269/106/119
f 289/107/119 290/109/119 271/110/119 270/108/119
f 290/109/119 291/111/119 272/112/119 271/110/119
f 291/111/119 292/100/119 273/113/119 272/112/119
f 292/100/119 293/99/119 274/114/119 273/113/119
f 293/99/119 294/115/119 275/116/119 274/114/119
f 294/115/120 295/117/120 276/118/120 275/116/120
f 297/145/119 296/147/119 277/148/119 278/146/119
f 296/147/119 298/149/119 279/150/119 277/148/119
f 298/149/119 299/151/119 280/152/119 279/150/119
f 299/151/119 300/153/119 281/154/119 280/152/119
f 300/153/119 301/155/119 282/156/119 281/154/119
f 301/155/119 302/157/119 283/158/119 282/156/119
f 302/157/119 303/159/119 284/160/119 283/158/119
f 303/159/119 304/161/119 285/162/119 284/160/119
f 304/161/119 287/101/119 268/104/119 285/162/119
f 265/159/121 266/161/121 304/161/121 303/159/121
f 253/107/122 254/109/122 290/109/122 289/107/122
f 240/118/123 239/116/123 275/116/123 276/118/123
f 266/161/124 251/101/124 287/101/124 304/161/124
f 254/109/125 255/111/125 291/111/125 290/109/125
f 241/148/126 242/146/126 278/146/126 277/148/126
f 255/111/127 256/100/127 292/100/127 291/111/127
f 243/150/128 241/148/128 277/148/128 279/150/128
f 256/100/129 257/99/129 293/99/129 292/100/129
f 244/152/130 243/150/130 279/150/130 280/152/130
f 257/99/126 258/115/126 294/115/126 293/99/126
f 245/154/131 244/152/131 280/152/131 281/154/131
f 258/115/132 202/117/132 295/117/132 294/115/132
f 246/156/133 245/154/133 281/154/133 282/156/133
f 231/103/134 232/104/134 268/104/134 267/103/134
f 203/145/135 259/147/135 296/147/135 297/145/135
f 247/158/136 246/156/136 282/156/136 283/158/136
f 233/106/137 231/103/137 267/103/137 269/106/137
f 259/147/123 260/149/123 298/149/123 296/147/123
f 248/160/138 247/158/138 283/158/138 284/160/138
usemtl Material.002
f 17/18/9 18/17/9 20/19/9 19/20/9
f 19/20/10 20/19/10 22/21/10 21/22/10
f 21/22/11 22/21/11 24/23/11 23/24/11
f 23/24/12 24/23/12 26/25/12 25/26/12
f 25/26/13 26/25/13 28/27/13 27/28/13
f 27/28/14 28/27/14 30/29/14 29/30/14
f 29/30/15 30/29/15 32/31/15 31/32/15
f 31/32/16 32/31/16 34/33/16 33/34/16
f 33/34/17 34/33/17 36/35/17 35/36/17
f 35/36/18 36/35/18 38/37/18 37/38/18
f 37/38/19 38/37/19 40/39/19 39/40/19
f 39/40/20 40/39/20 42/41/20 41/42/20
f 41/42/21 42/41/21 44/43/21 43/44/21
f 43/44/22 44/43/22 46/45/22 45/46/22
f 45/46/23 46/45/23 48/47/23 47/48/23
f 47/48/24 48/47/24 50/49/24 49/50/24
