# Blender 4.5.4 LTS
# www.blender.org
mtllib Phone.mtl
o Plane.001
v 0.709874 3.878734 -1.237060
v 0.704754 3.928471 -1.287060
v 0.708875 3.888437 -1.238021
v 0.707915 3.897767 -1.240866
v 0.707029 3.906366 -1.245486
v 0.706253 3.913903 -1.251704
v 0.705617 3.920088 -1.259281
v 0.705143 3.924685 -1.267926
v 0.704852 3.927515 -1.277305
v 0.770689 3.288011 -1.287060
v 0.765568 3.337748 -1.237060
v 0.770591 3.288966 -1.277305
v 0.770299 3.291796 -1.267926
v 0.769826 3.296393 -1.259281
v 0.769190 3.302578 -1.251704
v 0.768414 3.310115 -1.245486
v 0.767528 3.318714 -1.240866
v 0.766568 3.328044 -1.238021
v 0.709874 3.878734 -1.607932
v 0.704754 3.928471 -1.557932
v 0.708875 3.888437 -1.606971
v 0.707915 3.897767 -1.604126
v 0.707029 3.906366 -1.599505
v 0.706253 3.913903 -1.593287
v 0.705617 3.920088 -1.585710
v 0.705143 3.924685 -1.577066
v 0.704852 3.927515 -1.567686
v 0.765568 3.337748 -1.607932
v 0.770689 3.288011 -1.557932
v 0.766568 3.328044 -1.606971
v 0.767528 3.318714 -1.604126
v 0.768414 3.310115 -1.599505
v 0.769190 3.302578 -1.593287
v 0.769826 3.296393 -1.585710
v 0.770299 3.291796 -1.577066
v 0.770591 3.288966 -1.567686
v 0.748141 3.882328 -1.244057
v 0.743702 3.925446 -1.287403
v 0.747247 3.891008 -1.244917
v 0.746422 3.899026 -1.247362
v 0.745661 3.906416 -1.251333
v 0.744994 3.912893 -1.256676
v 0.744447 3.918209 -1.263188
v 0.744040 3.922159 -1.270617
v 0.743790 3.924591 -1.278677
v 0.808204 3.298907 -1.287403
v 0.803765 3.342026 -1.244057
v 0.808116 3.299762 -1.278677
v 0.807866 3.302194 -1.270617
v 0.807459 3.306144 -1.263188
v 0.806912 3.311460 -1.256676
v 0.806245 3.317937 -1.251333
v 0.805484 3.325326 -1.247362
v 0.804659 3.333345 -1.244917
v 0.748141 3.882328 -1.600935
v 0.743702 3.925446 -1.557588
v 0.747247 3.891008 -1.600075
v 0.746422 3.899026 -1.597630
v 0.745661 3.906416 -1.593659
v 0.744994 3.912893 -1.588315
v 0.744447 3.918209 -1.581804
v 0.744040 3.922159 -1.574375
v 0.743790 3.924591 -1.566314
v 0.803765 3.342026 -1.600935
v 0.808204 3.298907 -1.557588
v 0.804659 3.333345 -1.600075
v 0.805484 3.325326 -1.597630
v 0.806245 3.317937 -1.593659
v 0.806912 3.311460 -1.588315
v 0.807459 3.306144 -1.581804
v 0.807866 3.302194 -1.574375
v 0.808116 3.299762 -1.566314
v 0.742985 3.932407 -1.557932
v 0.742985 3.932407 -1.287060
v 0.743083 3.931451 -1.277305
v 0.743375 3.928621 -1.267926
v 0.743848 3.924024 -1.259281
v 0.744485 3.917839 -1.251704
v 0.745261 3.910302 -1.245486
v 0.746146 3.901703 -1.240866
v 0.747107 3.892373 -1.238021
v 0.748106 3.882669 -1.237060
v 0.803800 3.341684 -1.237060
v 0.804799 3.331980 -1.238021
v 0.805760 3.322650 -1.240866
v 0.806645 3.314051 -1.245486
v 0.807421 3.306514 -1.251704
v 0.808058 3.300329 -1.259281
v 0.808531 3.295732 -1.267926
v 0.808822 3.292902 -1.277305
v 0.808920 3.291946 -1.287060
v 0.808920 3.291946 -1.557932
v 0.808822 3.292902 -1.567686
v 0.808531 3.295732 -1.577066
v 0.808058 3.300329 -1.585710
v 0.807421 3.306514 -1.593287
v 0.806645 3.314051 -1.599505
v 0.805760 3.322650 -1.604126
v 0.804799 3.331980 -1.606971
v 0.803800 3.341684 -1.607932
v 0.748106 3.882669 -1.607932
v 0.747107 3.892373 -1.606971
v 0.746146 3.901703 -1.604126
v 0.745261 3.910302 -1.599505
v 0.744485 3.917839 -1.593287
v 0.743848 3.924024 -1.585710
v 0.743375 3.928621 -1.577066
v 0.743083 3.931451 -1.567686
v 0.739371 3.925000 -1.557588
v 0.739371 3.925000 -1.287403
v 0.739458 3.924145 -1.278677
v 0.739709 3.921713 -1.270617
v 0.740115 3.917763 -1.263188
v 0.740663 3.912447 -1.256676
v 0.741329 3.905970 -1.251333
v 0.742090 3.898581 -1.247362
v 0.742916 3.890562 -1.244917
v 0.743810 3.881881 -1.244057
v 0.799433 3.341580 -1.244057
v 0.800327 3.332899 -1.244917
v 0.801153 3.324881 -1.247362
v 0.801913 3.317491 -1.251333
v 0.802580 3.311014 -1.256676
v 0.803128 3.305698 -1.263188
v 0.803534 3.301749 -1.270617
v 0.803785 3.299316 -1.278677
v 0.803872 3.298461 -1.287403
v 0.803872 3.298461 -1.557588
v 0.803785 3.299316 -1.566314
v 0.803534 3.301749 -1.574375
v 0.803128 3.305698 -1.581804
v 0.802580 3.311014 -1.588315
v 0.801913 3.317491 -1.593659
v 0.801153 3.324881 -1.597630
v 0.800327 3.332899 -1.600075
v 0.799433 3.341580 -1.600935
v 0.743810 3.881881 -1.600935
v 0.742916 3.890562 -1.600075
v 0.742090 3.898581 -1.597630
v 0.741329 3.905970 -1.593659
v 0.740663 3.912447 -1.588315
v 0.740115 3.917763 -1.581804
v 0.739709 3.921713 -1.574375
v 0.739458 3.924145 -1.566314
vn -0.9947 -0.1024 -0.0000
vn 0.0650 -0.6311 0.7730
vn -0.1019 0.9900 0.0980
vn -0.0100 0.0975 -0.9952
vn 0.0903 -0.8773 0.4714
vn -0.0980 0.9519 0.2903
vn -0.0297 0.2888 -0.9569
vn 0.0980 -0.9519 0.2903
vn -0.0903 0.8773 0.4714
vn -0.0483 0.4689 -0.8819
vn 0.1019 -0.9900 0.0980
vn -0.0792 0.7690 0.6344
vn -0.0650 0.6311 -0.7730
vn 0.1024 -0.9947 -0.0000
vn -0.0650 0.6311 0.7730
vn -0.0792 0.7690 -0.6344
vn 0.1019 -0.9900 -0.0980
vn -0.0483 0.4689 0.8819
vn -0.0903 0.8773 -0.4714
vn 0.0980 -0.9519 -0.2903
vn -0.0297 0.2888 0.9569
vn -0.0980 0.9519 -0.2903
vn 0.0903 -0.8773 -0.4714
vn -0.0100 0.0975 0.9952
vn -0.1019 0.9900 -0.0980
vn 0.0792 -0.7690 -0.6344
vn -0.0000 -0.0000 1.0000
vn 0.0650 -0.6311 -0.7730
vn 0.0100 -0.0975 0.9952
vn 0.0483 -0.4689 -0.8819
vn 0.0297 -0.2888 0.9569
vn 0.0297 -0.2888 -0.9569
vn 0.0483 -0.4689 0.8819
vn 0.0100 -0.0975 -0.9952
vn -0.1024 0.9947 -0.0000
vn -0.0000 -0.0000 -1.0000
vn 0.0792 -0.7690 0.6344
vn 0.9947 0.1024 -0.0000
vn 0.0791 -0.7690 0.6344
vn -0.1020 0.9899 0.0980
vn 0.0297 -0.2887 -0.9569
vn -0.0792 0.7689 0.6344
vn -0.0792 0.7689 -0.6344
vn 0.0297 -0.2887 0.9569
vn -0.1020 0.9899 -0.0980
vn 0.0791 -0.7690 -0.6344
vt 0.000000 0.134817
vt 0.000000 0.865183
vt 0.001492 0.891484
vt 0.005912 0.916774
vt 0.013088 0.940082
vt 0.022746 0.960512
vt 0.034514 0.977279
vt 0.047940 0.989737
vt 0.062508 0.997409
vt 0.077658 1.000000
vt 0.922342 1.000000
vt 0.937492 0.997409
vt 0.952060 0.989737
vt 0.965486 0.977279
vt 0.977254 0.960512
vt 0.986912 0.940082
vt 0.994089 0.916774
vt 0.998508 0.891484
vt 1.000000 0.865183
vt 1.000000 0.134817
vt 0.998508 0.108516
vt 0.994089 0.083226
vt 0.986912 0.059918
vt 0.977254 0.039488
vt 0.965486 0.022721
vt 0.952060 0.010263
vt 0.937492 0.002591
vt 0.922341 0.000000
vt 0.077658 0.000000
vt 0.062508 0.002591
vt 0.047940 0.010263
vt 0.034514 0.022721
vt 0.022746 0.039488
vt 0.013088 0.059918
vt 0.005912 0.083226
vt 0.001492 0.108516
vt 0.040581 0.961515
vt 0.030468 0.947106
vt 0.010868 0.135744
vt 0.010868 0.864256
vt 0.012203 0.112215
vt 0.016001 0.090481
vt 0.022168 0.070451
vt 0.030468 0.052894
vt 0.040581 0.038485
vt 0.052119 0.027779
vt 0.064639 0.021186
vt 0.078193 0.018868
vt 0.921808 0.018868
vt 0.935361 0.021186
vt 0.947881 0.027779
vt 0.959419 0.038485
vt 0.969532 0.052894
vt 0.977832 0.070451
vt 0.983999 0.090481
vt 0.987797 0.112215
vt 0.989132 0.135744
vt 0.989132 0.864256
vt 0.987797 0.887785
vt 0.983999 0.909519
vt 0.977832 0.929549
vt 0.969532 0.947106
vt 0.959419 0.961515
vt 0.947881 0.972221
vt 0.935361 0.978814
vt 0.921807 0.981132
vt 0.078193 0.981132
vt 0.064639 0.978814
vt 0.052119 0.972221
vt 0.022168 0.929549
vt 0.016001 0.909519
vt 0.012203 0.887785
s 0
usemtl Black
f 2/1/1 20/2/1 27/3/1 26/4/1 25/5/1 24/6/1 23/7/1 22/8/1 21/9/1 19/10/1 28/11/1 30/12/1 31/13/1 32/14/1 33/15/1 34/16/1 35/17/1 36/18/1 29/19/1 10/20/1 12/21/1 13/22/1 14/23/1 15/24/1 16/25/1 17/26/1 18/27/1 11/28/1 1/29/1 3/30/1 4/31/1 5/32/1 6/33/1 7/34/1 8/35/1 9/36/1
f 59/37/2 60/38/2 141/38/2 140/37/2
f 2/1/3 9/36/3 75/36/3 74/1/3
f 19/10/4 21/9/4 102/9/4 101/10/4
f 14/23/5 13/22/5 89/22/5 88/23/5
f 9/36/6 8/35/6 76/35/6 75/36/6
f 21/9/7 22/8/7 103/8/7 102/9/7
f 13/22/8 12/21/8 90/21/8 89/22/8
f 8/35/9 7/34/9 77/34/9 76/35/9
f 22/8/10 23/7/10 104/7/10 103/8/10
f 12/21/11 10/20/11 91/20/11 90/21/11
f 7/34/12 6/33/12 78/33/12 77/34/12
f 23/7/13 24/6/13 105/6/13 104/7/13
f 10/20/14 29/19/14 92/19/14 91/20/14
f 6/33/15 5/32/15 79/32/15 78/33/15
f 24/6/16 25/5/16 106/5/16 105/6/16
f 29/19/17 36/18/17 93/18/17 92/19/17
f 5/32/18 4/31/18 80/31/18 79/32/18
f 25/5/19 26/4/19 107/4/19 106/5/19
f 36/18/20 35/17/20 94/17/20 93/18/20
f 4/31/21 3/30/21 81/30/21 80/31/21
f 26/4/22 27/3/22 108/3/22 107/4/22
f 35/17/23 34/16/23 95/16/23 94/17/23
f 3/30/24 1/29/24 82/29/24 81/30/24
f 27/3/25 20/2/25 73/2/25 108/3/25
f 34/16/26 33/15/26 96/15/26 95/16/26
f 1/29/27 11/28/27 83/28/27 82/29/27
f 33/15/28 32/14/28 97/14/28 96/15/28
f 11/28/29 18/27/29 84/27/29 83/28/29
f 32/14/30 31/13/30 98/13/30 97/14/30
f 18/27/31 17/26/31 85/26/31 84/27/31
f 31/13/32 30/12/32 99/12/32 98/13/32
f 17/26/33 16/25/33 86/25/33 85/26/33
f 30/12/34 28/11/34 100/11/34 99/12/34
f 16/25/2 15/24/2 87/24/2 86/25/2
f 20/2/35 2/1/35 74/1/35 73/2/35
f 28/11/36 19/10/36 101/10/36 100/11/36
f 15/24/37 14/23/37 88/23/37 87/24/37
f 38/39/38 56/40/38 73/2/38 74/1/38
f 45/41/38 38/39/38 74/1/38 75/36/38
f 44/42/38 45/41/38 75/36/38 76/35/38
f 43/43/38 44/42/38 76/35/38 77/34/38
f 42/44/38 43/43/38 77/34/38 78/33/38
f 41/45/38 42/44/38 78/33/38 79/32/38
f 40/46/38 41/45/38 79/32/38 80/31/38
f 39/47/38 40/46/38 80/31/38 81/30/38
f 37/48/38 39/47/38 81/30/38 82/29/38
f 47/49/38 37/48/38 82/29/38 83/28/38
f 54/50/38 47/49/38 83/28/38 84/27/38
f 53/51/38 54/50/38 84/27/38 85/26/38
f 52/52/38 53/51/38 85/26/38 86/25/38
f 51/53/38 52/52/38 86/25/38 87/24/38
f 50/54/38 51/53/38 87/24/38 88/23/38
f 49/55/38 50/54/38 88/23/38 89/22/38
f 48/56/38 49/55/38 89/22/38 90/21/38
f 46/57/38 48/56/38 90/21/38 91/20/38
f 65/58/38 46/57/38 91/20/38 92/19/38
f 72/59/38 65/58/38 92/19/38 93/18/38
f 71/60/38 72/59/38 93/18/38 94/17/38
f 70/61/38 71/60/38 94/17/38 95/16/38
f 69/62/38 70/61/38 95/16/38 96/15/38
f 68/63/38 69/62/38 96/15/38 97/14/38
f 67/64/38 68/63/38 97/14/38 98/13/38
f 66/65/38 67/64/38 98/13/38 99/12/38
f 64/66/38 66/65/38 99/12/38 100/11/38
f 55/67/38 64/66/38 100/11/38 101/10/38
f 57/68/38 55/67/38 101/10/38 102/9/38
f 58/69/38 57/68/38 102/9/38 103/8/38
f 59/37/38 58/69/38 103/8/38 104/7/38
f 60/38/38 59/37/38 104/7/38 105/6/38
f 61/70/38 60/38/38 105/6/38 106/5/38
f 62/71/38 61/70/38 106/5/38 107/4/38
f 63/72/38 62/71/38 107/4/38 108/3/38
f 56/40/38 63/72/38 108/3/38 73/2/38
f 46/57/35 65/58/35 128/58/35 127/57/35
f 42/44/28 41/45/28 115/45/28 114/44/28
f 60/38/39 61/70/39 142/70/39 141/38/39
f 65/58/40 72/59/40 129/59/40 128/58/40
f 41/45/30 40/46/30 116/46/30 115/45/30
f 61/70/5 62/71/5 143/71/5 142/70/5
f 72/59/6 71/60/6 130/60/6 129/59/6
f 40/46/41 39/47/41 117/47/41 116/46/41
f 62/71/8 63/72/8 144/72/8 143/71/8
f 71/60/9 70/61/9 131/61/9 130/60/9
f 39/47/34 37/48/34 118/48/34 117/47/34
f 63/72/11 56/40/11 109/40/11 144/72/11
f 70/61/42 69/62/42 132/62/42 131/61/42
f 37/48/36 47/49/36 119/49/36 118/48/36
f 69/62/15 68/63/15 133/63/15 132/62/15
f 47/49/4 54/50/4 120/50/4 119/49/4
f 68/63/18 67/64/18 134/64/18 133/63/18
f 54/50/7 53/51/7 121/51/7 120/50/7
f 67/64/21 66/65/21 135/65/21 134/64/21
f 53/51/10 52/52/10 122/52/10 121/51/10
f 66/65/24 64/66/24 136/66/24 135/65/24
f 52/52/13 51/53/13 123/53/13 122/52/13
f 56/40/14 38/39/14 110/39/14 109/40/14
f 64/66/27 55/67/27 137/67/27 136/66/27
f 51/53/43 50/54/43 124/54/43 123/53/43
f 38/39/17 45/41/17 111/41/17 110/39/17
f 55/67/29 57/68/29 138/68/29 137/67/29
f 50/54/19 49/55/19 125/55/19 124/54/19
f 45/41/20 44/42/20 112/42/20 111/41/20
f 57/68/44 58/69/44 139/69/44 138/68/44
f 49/55/22 48/56/22 126/56/22 125/55/22
f 44/42/23 43/43/23 113/43/23 112/42/23
f 58/69/33 59/37/33 140/37/33 139/69/33
f 48/56/45 46/57/45 127/57/45 126/56/45
f 43/43/46 42/44/46 114/44/46 113/43/46
usemtl Material
f 110/39/38 111/41/38 112/42/38 113/43/38 114/44/38 115/45/38 116/46/38 117/47/38 118/48/38 119/49/38 120/50/38 121/51/38 122/52/38 123/53/38 124/54/38 125/55/38 126/56/38 127/57/38 128/58/38 129/59/38 130/60/38 131/61/38 132/62/38 133/63/38 134/64/38 135/65/38 136/66/38 137/67/38 138/68/38 139/69/38 140/37/38 141/38/38 142/70/38 143/71/38 144/72/38 109/40/38
